<svg width="100" height="100" viewBox="0 0 100 100" fill="none" xmlns="http://www.w3.org/2000/svg">
<path d="M8.07925 54.4162C5.64025 51.9772 5.64025 48.0228 8.07925 45.5838L45.5838 8.07925C48.0228 5.64025 51.9772 5.64025 54.4162 8.07925L91.9208 45.5838C94.3598 48.0228 94.3597 51.9772 91.9207 54.4162L54.4162 91.9208C51.9772 94.3598 48.0228 94.3597 45.5838 91.9207L8.07925 54.4162Z" fill="#EE513B"/>
<path d="M37.9665 15.8176L34.1686 19.6156L43.9777 29.4246C43.5809 30.276 43.3594 31.2254 43.3594 32.2266C43.3594 35.069 45.1453 37.4944 47.6562 38.4417V62.4371C45.1453 63.3845 43.3594 65.8099 43.3594 68.6523C43.3594 72.3199 46.3325 75.293 50 75.293C53.6675 75.293 56.6406 72.3199 56.6406 68.6523C56.6406 66.0753 55.1727 63.8411 53.0273 62.7403V38.4743L62.404 47.8509C62.0265 48.685 61.8164 49.6109 61.8164 50.5859C61.8164 54.2534 64.7895 57.2266 68.457 57.2266C72.1245 57.2266 75.0976 54.2534 75.0976 50.5859C75.0976 46.9184 72.1245 43.9453 68.457 43.9453C67.7443 43.9453 67.0579 44.0576 66.4143 44.2654L56.344 34.1951C56.5368 33.5731 56.6406 32.9119 56.6406 32.2266C56.6406 28.559 53.6675 25.5859 50 25.5859C49.3146 25.5859 48.6535 25.6898 48.0315 25.8826L37.9665 15.8176Z" fill="white"/>
</svg>
