<svg width="90" height="90" viewBox="0 0 90 90" fill="none" xmlns="http://www.w3.org/2000/svg">
<path d="M0 4C0 1.79086 1.79086 0 4 0H86C88.2091 0 90 1.79086 90 4V86C90 88.2091 88.2091 90 86 90H4C1.79086 90 0 88.2091 0 86V4Z" fill="#F7DF1E"/>
<path d="M23.6644 75.2103L27.0229 73.1777C28.9539 72.009 31.2274 72.9189 32.9683 74.3556C33.7474 74.9985 34.7013 75.3913 35.9884 75.3913C38.7675 75.3913 40.52 74.3043 40.52 70.0757V45.3186C40.52 43.1095 42.3109 41.3186 44.52 41.3186H44.9776C47.1867 41.3186 48.9776 43.1094 48.9776 45.3186V70.1952C48.9776 78.9551 43.8426 82.9425 36.3508 82.9425C29.585 82.9425 25.6577 79.4385 23.664 75.2096M53.5714 74.3039L57.0805 72.2723C58.9591 71.1846 61.2723 71.9068 62.9026 73.3401C64.3846 74.6431 66.2528 75.4521 68.7951 75.4521C72.2999 75.4521 74.5344 73.7 74.5344 71.2833C74.5344 68.3836 72.2387 67.3564 68.3722 65.6653L66.2583 64.7583C60.1562 62.1613 56.1087 58.8988 56.1087 52.0117C56.1087 45.6681 60.9416 40.8348 68.4935 40.8348C72.5994 40.8348 75.8246 41.9271 78.3573 44.6226C79.773 46.1293 79.1535 48.4761 77.4139 49.5933V49.5933C75.5256 50.806 73.1612 49.8675 71.1818 48.8098C70.4022 48.3932 69.5248 48.206 68.4931 48.206C66.016 48.206 64.4453 49.7768 64.4453 51.8307C64.4453 54.3679 66.016 55.3955 69.6406 56.9663L71.7549 57.8723C78.9444 60.9537 82.9919 64.0949 82.9919 71.1627C82.9919 78.7755 77.0111 82.9436 68.9762 82.9436C61.1226 82.9436 56.0478 79.198 53.5711 74.3043" fill="black"/>
</svg>
