<svg width="100" height="100" viewBox="0 0 100 100" fill="none" xmlns="http://www.w3.org/2000/svg">
<mask id="mask0_12_43281" style="mask-type:alpha" maskUnits="userSpaceOnUse" x="0" y="0" width="100" height="100">
<path d="M50 100C77.6142 100 100 77.6142 100 50C100 22.3858 77.6142 0 50 0C22.3858 0 0 22.3858 0 50C0 77.6142 22.3858 100 50 100Z" fill="black"/>
</mask>
<g mask="url(#mask0_12_43281)">
<path d="M50 100C77.6142 100 100 77.6142 100 50C100 22.3858 77.6142 0 50 0C22.3858 0 0 22.3858 0 50C0 77.6142 22.3858 100 50 100Z" fill="black"/>
<path d="M83.06 87.5111L38.4122 30H30V69.9833H36.7298V38.5464L77.7772 91.5806C79.6294 90.3411 81.3939 88.9806 83.06 87.5111Z" fill="url(#paint0_linear_12_43281)"/>
<path d="M70.5556 30H63.8889V70H70.5556V30Z" fill="url(#paint1_linear_12_43281)"/>
</g>
<defs>
<linearGradient id="paint0_linear_12_43281" x1="60.5556" y1="64.7222" x2="80.2778" y2="89.1667" gradientUnits="userSpaceOnUse">
<stop stop-color="white"/>
<stop offset="1" stop-color="white" stop-opacity="0"/>
</linearGradient>
<linearGradient id="paint1_linear_12_43281" x1="67.2222" y1="30" x2="67.1106" y2="59.375" gradientUnits="userSpaceOnUse">
<stop stop-color="white"/>
<stop offset="1" stop-color="white" stop-opacity="0"/>
</linearGradient>
</defs>
</svg>
