<svg width="100" height="100" viewBox="0 0 100 100" fill="none" xmlns="http://www.w3.org/2000/svg">
<path d="M58.3715 49.9247C58.3715 45.4421 54.6237 41.8079 50 41.8079C45.3767 41.8079 41.6285 45.4421 41.6285 49.9247C41.6285 54.4077 45.3767 58.0419 50 58.0419C54.6237 58.0419 58.3715 54.4077 58.3715 49.9247Z" fill="#53C1DE"/>
<path fill-rule="evenodd" clip-rule="evenodd" d="M77.1886 34.8553C78.9566 27.89 81.1788 14.9734 73.345 10.5943C65.5479 6.23421 55.4014 14.5888 50.0436 19.6037C44.7013 14.6388 34.2698 6.31989 26.4426 10.7129C18.6485 15.0876 21.052 27.79 22.8591 34.799C15.5885 36.8013 3.125 41.1138 3.125 49.9247C3.125 58.7107 15.5755 63.4025 22.8031 65.4028C20.9893 72.4506 18.7061 84.9717 26.5102 89.3364C34.3665 93.7287 44.7657 85.6078 50.173 80.5382C55.5652 85.5824 65.6144 93.7565 73.413 89.3795C81.2364 84.9885 79.1987 72.245 77.3915 65.1952C84.3977 63.1906 96.875 58.601 96.875 49.9247C96.875 41.1984 84.3448 36.8509 77.1886 34.8553ZM76.3007 61.4593C75.1141 57.8174 73.5126 53.9447 71.5534 49.944C73.4234 46.0379 74.9627 42.215 76.1161 38.5965C81.3621 40.0711 92.8703 43.4415 92.8703 49.9247C92.8703 56.4686 81.827 59.8709 76.3007 61.4593ZM71.4061 86.0188C65.5876 89.2844 56.9442 81.4676 52.962 77.7528C55.6037 74.9513 58.2437 71.6945 60.8203 68.078C65.3527 67.6882 69.6345 67.0505 73.5176 66.1804C74.7895 71.1669 77.2507 82.7383 71.4061 86.0188ZM28.5113 85.9721C22.692 82.7188 25.3518 71.5457 26.6861 66.3542C30.5261 67.1777 34.7768 67.7702 39.32 68.1274C41.9135 71.6663 44.6299 74.9191 47.3674 77.7677C43.9852 80.9399 34.3579 89.2406 28.5113 85.9721ZM7.12965 49.9247C7.12965 43.3562 18.569 40.0104 23.9345 38.5394C25.1078 42.2392 26.6467 46.1075 28.5038 50.0192C26.6227 53.9893 25.0618 57.9192 23.8777 61.6624C18.7615 60.2426 7.12965 56.4973 7.12965 49.9247ZM28.4491 14.0736C34.2922 10.7943 43.3585 18.7807 47.2372 22.3754C44.5137 25.2111 41.8222 28.4394 39.2511 31.9577C34.8419 32.3539 30.6211 32.9903 26.7409 33.8428C25.2852 28.1897 22.6122 17.3493 28.4491 14.0736ZM63.6852 36.1784C66.6766 36.5445 69.5424 37.0312 72.2334 37.627C71.4256 40.1377 70.4187 42.7629 69.2329 45.4542C67.5137 42.2915 65.6684 39.1925 63.6852 36.1784ZM50.0448 25.1503C51.892 27.0905 53.742 29.2572 55.5618 31.6077C51.8704 31.4386 48.1728 31.4378 44.4814 31.6053C46.3028 29.2765 48.1686 27.113 50.0448 25.1503ZM30.8016 45.4514C29.6353 42.7694 28.6374 40.1324 27.8226 37.586C30.4974 37.0055 33.3499 36.5312 36.3219 36.1712C34.3332 39.1786 32.4909 42.2765 30.8016 45.4514ZM36.4073 63.9554C33.3371 63.6231 30.4414 63.173 27.7674 62.6086C28.5951 60.0171 29.6149 57.3234 30.8061 54.5839C32.5188 57.7915 34.389 60.9195 36.4073 63.9554ZM50.1556 74.9734C48.2574 72.9874 46.3642 70.7909 44.515 68.4283C48.2276 68.5698 51.9473 68.5701 55.6593 68.4094C53.8337 70.8151 51.9903 73.0147 50.1556 74.9734ZM69.271 54.4443C70.524 57.2136 71.5804 59.8928 72.4193 62.4404C69.7009 63.0418 66.7663 63.5262 63.674 63.8858C65.6719 60.8148 67.5464 57.6675 69.271 54.4443ZM58.5852 64.3565C52.9067 64.7499 47.1924 64.7457 41.5119 64.3887C38.284 59.817 35.4108 55.0093 32.9304 50.018C35.3986 45.0371 38.2511 40.2388 41.4638 35.6744C47.1486 35.2577 52.8682 35.2567 58.5528 35.6768C61.7377 40.241 64.586 45.0268 67.1115 49.9629C64.6159 54.9414 61.7485 59.7493 58.5852 64.3565ZM71.3447 13.9581C77.1894 17.2267 74.5878 28.8352 73.311 33.883C69.4216 33.0129 65.1979 32.3652 60.7759 31.9629C58.1997 28.4064 55.5307 25.1725 52.8512 22.3734C56.7798 18.7013 65.5565 10.7215 71.3447 13.9581Z" fill="#53C1DE"/>
</svg>
